# xmcd
#
# Track frame offsets: 
#        150
#        12960
#        24985
#        35780
#        46217
#        56927
#        72412
#        81060
#        95097
#        103075
#        115675
#        127087
#        138075
#        147595
#        159025
#        170100
#        180387
#        189885
#        204175
#        217265
#        228342
#
# Disc length: 3242 seconds
#
# Revision: 2
# Processed by: cddbd v1.5.2PL0 Copyright (c) Steve Scherf et al.
# Submitted via: ExactAudioCopy v1.0b3
#
DISCID=290ca815
DTITLE=Walter Brennan - Two Classic Albums (Old Rivers and 'Twas The Nig
DTITLE=ht Before Christmas...Back Home)
DYEAR=1996
DGENRE=Country
TTITLE0=Old Rivers
TTITLE1=The Old Kelly Place
TTITLE2=Conversation With A Mule
TTITLE3=The Farmer and The Lord
TTITLE4=Happy Birthday Old Folk
TTITLE5=It Takes A Heap Of Living (To Make A House A Home)
TTITLE6=Boll Weevil
TTITLE7=Steal Away
TTITLE8=Pickin' Time
TTITLE9=Old Rivers' Trunk
TTITLE10=White Christmas
TTITLE11=Just Three Letters For Christmas
TTITLE12=A Farmer's Christmas Prayer
TTITLE13=Henry Had A Merry Christmas
TTITLE14=Old Time Christmas Stories
TTITLE15=(There's No Place Like) Home For The Holidays
TTITLE16=Silent Night
TTITLE17=Christmas Together
TTITLE18=Let The Bells Ring Out
TTITLE19=A Good Year For Santa Claus
TTITLE20=O Come Ye Faithful
EXTD=
EXTT0=
EXTT1=
EXTT2=
EXTT3=
EXTT4=
EXTT5=
EXTT6=
EXTT7=
EXTT8=
EXTT9=
EXTT10=
EXTT11=
EXTT12=
EXTT13=
EXTT14=
EXTT15=
EXTT16=
EXTT17=
EXTT18=
EXTT19=
EXTT20=
PLAYORDER=
